# xmcd
#
# Track frame offsets:
#	150
#	16360
#	31325
#	47324
#	65337
#	83516
#	98891
#	114997
#	128682
#	143003
#	159307
#	174315
#	187718
#	203173
#	218504
#	235350
#	250508
#	266412
#	281462
#	296041
#	310931
#	328141
#
# Disc length: 4612 seconds
#
# Revision: 0
# Processed by: cddbd v1.5.2PL0 Copyright (c) Steve Scherf et al.
# Submitted via: dBpowerAMP V4.0
#
DISCID=1e120216
DTITLE=Various Artist - ERG Nu Country Traxx Vol. 224 CAN
DYEAR=2013
DGENRE=Country
TTITLE0=Blake Shelton - Sure Be Cool If You Did
TTITLE1=Eric Church - Like Jesus Does
TTITLE2=Dean Brody - Underneath The Apple Tree
TTITLE3=Darius Rucker  - Wagon Wheel
TTITLE4=Ryan Laird and Leah Daniels - Where Do I Go
TTITLE5=Jake Owen - Anywhere With You
TTITLE6=Dallas Smith - What Kinda Love
TTITLE7=Zac Brown Band - Jump Right In
TTITLE8=Jess Moskaluke - Hit 'N Run
TTITLE9=Kip Moore - Hey Pretty Girl
TTITLE10=Gord Bamford - Baseball Glove
TTITLE11=James Wesley - Wakin' Up The Rooster
TTITLE12=Chris Janson - Better I Don't
TTITLE13=Charlie Worsham - Could It Be
TTITLE14=Sean Hogan - Travel Plans
TTITLE15=Parmalee - Carolina
TTITLE16=Kylee Epp - Get It Right
TTITLE17=Joel Crouse - If You Want Some
TTITLE18=Tim Hicks - Get By
TTITLE19=Donny Parenteau - Sunshower
TTITLE20=David Kroll - Little Soldiers
TTITLE21=Bill Gentry - Hell And Half Of Georgia
EXTD=
EXTT0=
EXTT1=
EXTT2=
EXTT3=
EXTT4=
EXTT5=
EXTT6=
EXTT7=
EXTT8=
EXTT9=
EXTT10=
EXTT11=
EXTT12=
EXTT13=
EXTT14=
EXTT15=
EXTT16=
EXTT17=
EXTT18=
EXTT19=
EXTT20=
EXTT21=
PLAYORDER=
